<?xml version="1.0" encoding="utf-8"?>
<svg viewBox="33.549 18.585 318.513 133.244" xmlns="http://www.w3.org/2000/svg">
  <g transform="matrix(1, 0, 0, 1, -0.700001, 0.327999)">
    <rect x="35.7" y="19.672" width="100" height="25" style="stroke: rgb(140, 105, 244); paint-order: fill; fill: rgb(255, 255, 255);"/>
    <rect x="35.7" y="44.821" width="100" height="25" style="stroke: rgb(140, 105, 244); fill: rgb(255, 255, 255);"/>
    <text style="white-space: pre; fill: rgb(51, 51, 51); font-family: Inter, sans-serif; font-size: 14.9px;" x="36.7" y="38.18">Equipe 1</text>
    <text style="white-space: pre; fill: rgb(51, 51, 51); font-family: Inter, sans-serif; font-size: 14.9px;" x="36.7" y="63.18">Equipe 1</text>
  </g>
  <g transform="matrix(1, 0, 0, 1, -0.700001, 80.328003)">
    <rect x="35.7" y="19.672" width="100" height="25" style="stroke: rgb(140, 105, 244); paint-order: fill; fill: rgb(255, 255, 255);"/>
    <rect x="35.7" y="44.821" width="100" height="25" style="stroke: rgb(140, 105, 244); fill: rgb(255, 255, 255);"/>
    <text style="white-space: pre; fill: rgb(51, 51, 51); font-family: Inter, sans-serif; font-size: 14.9px;" x="36.7" y="38.18">Equipe 1</text>
    <text style="white-space: pre; fill: rgb(51, 51, 51); font-family: Inter, sans-serif; font-size: 14.9px;" x="36.7" y="63.18">Equipe 1</text>
  </g>
  <g transform="matrix(1.35, 0, 0, 1, 166.804993, 40.327999)">
    <rect x="35.7" y="19.672" width="100" height="25" style="stroke: rgb(140, 105, 244); paint-order: fill; fill: rgb(255, 255, 255);"/>
    <rect x="35.7" y="44.821" width="100" height="25" style="stroke: rgb(140, 105, 244); fill: rgb(255, 255, 255);"/>
    <text style="white-space: pre; fill: rgb(51, 51, 51); font-family: Inter, sans-serif; font-size: 14.9px;" x="36.7" y="38.18" transform="matrix(0.740741, 0, 0, 1, 9.255549, 0.00008)">Equipe 1</text>
    <text style="white-space: pre; fill: rgb(51, 51, 51); font-family: Inter, sans-serif; font-size: 14.9px;" x="36.7" y="38.18" transform="matrix(0.740741, 0, 0, 1, 9.255549, 25.037571)">Equipe 1</text>
  </g>
  <line style="fill: rgb(216, 216, 216); stroke: rgb(0, 0, 0);" x1="214" y1="85" x2="175" y2="85"/>
  <line style="fill: rgb(216, 216, 216); stroke: rgb(0, 0, 0);" x1="175" y1="45" x2="135.5" y2="45"/>
  <line style="fill: rgb(216, 216, 216); stroke: rgb(0, 0, 0);" x1="175.7" y1="125" x2="135.5" y2="125"/>
  <line style="fill: rgb(216, 216, 216); stroke: rgb(0, 0, 0);" x1="175" y1="45" x2="175" y2="85"/>
  <line style="fill: rgb(216, 216, 216); stroke: rgb(0, 0, 0);" x1="175" y1="85" x2="175" y2="125"/>
</svg>