<svg width="18" height="19" viewBox="0 0 18 19" fill="none" xmlns="http://www.w3.org/2000/svg">
    <path d="M16.8742 8.08036L9.77224 1.49954C9.54136 1.2856 9.23756 1.17008 8.92434 1.17712C8.61112 1.18417 8.31271 1.31323 8.0915 1.53733L1.57808 8.1358L1.24382 8.47438L1.25788 18.188L7.54359 18.1789L7.53482 12.1181L10.9634 12.1132L10.9722 18.1739L17.2579 18.1648L17.2438 8.42283L16.8742 8.08036ZM8.95058 2.33127C8.96065 2.33125 8.95444 2.33346 8.95013 2.33776C8.94566 2.33348 8.94051 2.33128 8.95058 2.33127ZM16.1133 17.012L12.1133 17.0178L12.1062 12.1115C12.1058 11.8054 11.985 11.5119 11.7703 11.2957C11.5557 11.0795 11.2648 10.9583 10.9617 10.9588L7.53315 10.9637C7.23004 10.9642 6.93953 11.0862 6.72551 11.303C6.5115 11.5198 6.39152 11.8136 6.39196 12.1198L6.39906 17.0261L2.39907 17.0319L2.38737 8.95091L8.95061 2.35237C8.95108 2.35194 8.95111 2.35154 8.95147 2.35111L16.1016 8.93106L16.1133 17.012Z" fill="#8C69F4" stroke="#8C69F4" stroke-linejoin="round"/>
</svg>
