<svg width="21" height="21" viewBox="0 0 21 21" fill="none" xmlns="http://www.w3.org/2000/svg">
    <path d="M10.5414 20.9741C5.01839 20.9821 0.534917 16.5116 0.526924 10.9886C0.518931 5.46558 4.98945 0.982107 10.5124 0.974114C16.0354 0.96612 20.5189 5.43664 20.5269 10.9596C20.5349 16.4826 16.0644 20.9661 10.5414 20.9741ZM10.5385 18.9741C12.6602 18.971 14.6938 18.1252 16.1919 16.6228C17.6901 15.1203 18.53 13.0843 18.5269 10.9625C18.5238 8.8408 17.678 6.80719 16.1756 5.30907C14.6731 3.81095 12.6371 2.97104 10.5153 2.97411C8.39361 2.97718 6.36 3.82298 4.86188 5.32544C3.36376 6.8279 2.52385 8.86395 2.52692 10.9857C2.52999 13.1074 3.37579 15.141 4.87825 16.6391C6.38071 18.1373 8.41676 18.9772 10.5385 18.9741ZM10.524 8.97411C10.7892 8.97372 11.0437 9.07871 11.2315 9.26597C11.4194 9.45324 11.5251 9.70744 11.5255 9.97266L11.5327 14.9727C11.5331 15.2379 11.4281 15.4924 11.2408 15.6802C11.0536 15.868 10.7994 15.9737 10.5341 15.9741C10.2689 15.9745 10.0144 15.8695 9.82662 15.6822C9.63881 15.495 9.53309 15.2408 9.5327 14.9755L9.52547 9.97555C9.52508 9.71033 9.63007 9.45583 9.81734 9.26802C10.0046 9.08021 10.2588 8.97449 10.524 8.97411ZM10.5226 7.97411C10.2574 7.97449 10.0028 7.8695 9.81504 7.68224C9.62723 7.49497 9.52151 7.24077 9.52113 6.97555C9.52074 6.71034 9.62573 6.45583 9.81299 6.26802C10.0003 6.08022 10.2545 5.97449 10.5197 5.97411C10.7849 5.97372 11.0394 6.07871 11.2272 6.26598C11.415 6.45324 11.5207 6.70744 11.5211 6.97266C11.5215 7.23788 11.4165 7.49238 11.2293 7.68019C11.042 7.868 10.7878 7.97372 10.5226 7.97411Z" fill="#8686A0"/>
</svg>
