<svg width="31" height="31" viewBox="0 0 31 31" fill="none" xmlns="http://www.w3.org/2000/svg">
    <g clip-path="url(#clip0_86_1488)">
        <path d="M12.043 15.3657C12.0407 13.7429 13.3651 12.4205 14.9954 12.4182C16.6254 12.4158 17.9536 13.7344 17.956 15.3572C17.9583 16.9804 16.6339 18.3026 15.0039 18.3049C13.3737 18.3073 12.0454 16.989 12.043 15.3657ZM7.62845 0.0505422L22.6335 0.0288257C26.7676 0.0228425 30.1358 3.3667 30.1418 7.48271L30.1448 9.56259L19.1123 9.57855C17.947 8.7546 16.5245 8.26893 14.9894 8.27115C13.4542 8.27337 12.033 8.76316 10.87 9.59048L0.144858 9.60601L0.141848 7.52612C0.135891 3.41008 3.49439 0.0565253 7.62845 0.0505422ZM4.60235 7.15447C4.60301 7.61062 4.97829 7.98335 5.4366 7.98269L8.01055 7.97896C8.4688 7.9783 8.84306 7.60448 8.8424 7.14834L8.83869 4.58544C8.83803 4.12932 8.46272 3.75656 8.00444 3.75722L5.43049 3.76095C4.97221 3.76161 4.59798 4.1354 4.59864 4.59157L4.60235 7.15447V7.15447ZM7.87787 15.3718C7.88353 19.2818 11.0831 22.4576 15.0099 22.4519C18.9368 22.4463 22.1269 19.2612 22.1213 15.3512C22.1197 14.2747 21.8747 13.2542 21.4403 12.3398L30.1488 12.3272L30.1636 22.5445C30.1695 26.6608 26.811 30.0141 22.677 30.0201L7.67182 30.0418C3.53776 30.0478 0.169572 26.7042 0.163615 22.5879L0.148828 12.3707L8.55009 12.3585C8.11835 13.2742 7.87631 14.2954 7.87787 15.3718Z" fill="#8C69F4"/>
    </g>
    <defs>
        <clipPath id="clip0_86_1488">
            <rect width="30" height="30" fill="white" transform="matrix(-0.999999 0.00144727 0.00144727 0.999999 30.1447 -0.000106812)"/>
        </clipPath>
    </defs>
</svg>
