<svg width="31" height="26" viewBox="0 0 31 26" fill="none" xmlns="http://www.w3.org/2000/svg">
    <path d="M5.07665 0.0361291C3.75057 0.0380483 2.47957 0.566672 1.54324 1.50571C0.60692 2.44475 0.0819773 3.71728 0.0838965 5.04336L0.0846238 5.54586L15.0963 13.6016L30.0846 5.50494L30.0839 4.99994C30.0819 3.67386 29.5533 2.40285 28.6143 1.46653C27.6752 0.530207 26.4027 0.00526446 25.0766 0.00718366L5.07665 0.0361291ZM30.0887 8.34244L15.6924 16.1208C15.5105 16.2191 15.307 16.2707 15.1002 16.271C14.8933 16.2713 14.6897 16.2203 14.5074 16.1225L0.088734 8.38586L0.105606 20.0433C0.107525 21.3694 0.636149 22.6404 1.57519 23.5768C2.51422 24.5131 3.78676 25.038 5.11284 25.0361L25.1128 25.0072C26.4389 25.0052 27.7099 24.4766 28.6462 23.5376C29.5825 22.5985 30.1075 21.326 30.1056 19.9999L30.0887 8.34244Z" fill="#8C69F4"/>
</svg>
