<svg width="25" height="25" viewBox="0 0 25 25" fill="none" xmlns="http://www.w3.org/2000/svg">
    <path d="M5.44024 16.9842L5.42576 6.98426L2.42577 6.9886L2.44024 16.9886L5.44024 16.9842ZM12.4229 4.97413L17.4229 4.96689C17.4229 4.96689 22.4229 4.95966 22.4286 8.95965L22.4373 14.9596C22.4399 16.7296 21.4413 17.7211 20.3721 18.2726C20.2095 17.3471 19.7258 16.5085 19.0062 15.9042C18.2866 15.2999 17.377 14.9685 16.4373 14.9683L13.4373 14.9727L13.4402 16.9727L16.4402 16.9683C16.9707 16.9676 17.4797 17.1775 17.8553 17.5521C18.2309 17.9266 18.4423 18.435 18.4431 18.9654C18.4439 19.4959 18.2339 20.0049 17.8594 20.3805C17.4848 20.7561 16.9764 20.9676 16.446 20.9683L11.446 20.9756C7.44602 20.9813 7.44023 16.9814 7.44023 16.9814L7.42576 6.98136C7.42576 6.98136 8.42287 4.97992 12.4229 4.97413Z" fill="#8686A0"/>
</svg>
