<svg width="33" height="33" viewBox="0 0 33 33" fill="none" xmlns="http://www.w3.org/2000/svg">
    <path d="M28.8582 19.6851L26.1473 16.982L26.1421 13.396C26.1354 10.9179 25.2101 8.53021 23.545 6.69475C21.88 4.8593 19.5935 3.70642 17.1277 3.45906L17.1247 1.40906L15.1247 1.41195L15.1277 3.46195C12.6626 3.71645 10.3795 4.87594 8.71978 6.71621C7.06005 8.55648 6.14163 10.9468 6.14212 13.425L6.14731 17.011L3.44423 19.7219C3.25695 19.9096 3.15193 20.1641 3.15225 20.4293L3.1566 23.4293C3.15698 23.6945 3.2627 23.9487 3.45051 24.136C3.63832 24.3232 3.89283 24.4282 4.15804 24.4278L11.158 24.4177L11.1592 25.1947C11.1392 26.4634 11.5882 27.6948 12.4199 28.6529C13.2517 29.6111 14.4078 30.2286 15.6667 30.3872C16.362 30.4551 17.0638 30.3768 17.7269 30.1572C18.3901 29.9376 19 29.5817 19.5174 29.1123C20.0347 28.6428 20.4481 28.0703 20.7309 27.4315C21.0137 26.7927 21.1597 26.1018 21.1595 25.4032L21.158 24.4032L28.158 24.3931C28.4232 24.3927 28.6774 24.287 28.8647 24.0992C29.052 23.9114 29.157 23.6569 29.1566 23.3917L29.1522 20.3917C29.1518 20.1265 29.046 19.8723 28.8582 19.6851ZM19.1595 25.4061C19.1606 26.2018 18.8457 26.9653 18.2839 27.5287C17.7221 28.0922 16.9595 28.4093 16.1638 28.4105C15.3682 28.4116 14.6047 28.0967 14.0412 27.5349C13.4778 26.9731 13.1606 26.2105 13.1595 25.4148L13.158 24.4148L19.158 24.4061L19.1595 25.4061ZM27.1551 22.3946L5.15515 22.4264L5.15285 20.8404L7.85593 18.1295C8.04321 17.9417 8.14823 17.6873 8.14791 17.4221L8.14212 13.4221C8.13905 11.3003 8.97896 9.26429 10.4771 7.76183C11.9752 6.25937 14.0088 5.41357 16.1305 5.4105C18.2523 5.40743 20.2883 6.24734 21.7908 7.74546C23.2932 9.24358 24.139 11.2772 24.1421 13.3989L24.1479 17.3989C24.1483 17.6641 24.2541 17.9183 24.4419 18.1055L27.1528 20.8086L27.1551 22.3946Z" fill="#F5F4F9"/>
</svg>
