<svg width="21" height="18" viewBox="0 0 21 18" fill="none" xmlns="http://www.w3.org/2000/svg">
    <path d="M13.6613 6.99521C14.6273 6.99381 15.4125 7.77667 15.4139 8.74267L15.4207 13.4917C15.4225 14.6854 14.9499 15.8309 14.107 16.6763C13.2642 17.5216 12.12 17.9974 10.9263 17.9992C9.73252 18.0009 8.58699 17.5283 7.74166 16.6855C6.89634 15.8426 6.42048 14.6984 6.41875 13.5047L6.41187 8.7557C6.41048 7.7897 7.19234 7.00457 8.15934 7.00317L13.6613 6.99521ZM6.03834 7.00624C5.67879 7.44021 5.46292 7.97516 5.42056 8.53713L5.41088 8.75715L5.41775 13.5061C5.41897 14.3531 5.61213 15.1549 5.95517 15.8704C5.36268 16.0298 4.74146 16.0508 4.13955 15.9318C3.53764 15.8128 2.97116 15.557 2.48392 15.1841C1.99668 14.8112 1.60173 14.3312 1.32961 13.7813C1.05748 13.2314 0.915483 12.6262 0.914583 12.0127L0.90988 8.76366C0.909261 8.32447 1.0738 7.90111 1.37084 7.5776C1.66789 7.2541 2.07571 7.05411 2.51335 7.01734L2.65735 7.01113L6.03834 7.00624ZM15.7823 6.99214L19.1573 6.98725C20.1233 6.98585 20.9085 7.76872 20.9099 8.73472L20.9146 11.9847C20.9156 12.5979 20.7756 13.2031 20.5055 13.7535C20.2354 14.304 19.8423 14.785 19.3567 15.1593C18.8711 15.5337 18.3059 15.7914 17.7048 15.9125C17.1038 16.0337 16.4829 16.015 15.8902 15.858C16.1893 15.2296 16.3723 14.5373 16.4122 13.8052L16.4207 13.4902L16.4139 8.74122C16.4129 8.07622 16.176 7.46657 15.7813 6.99214L15.7823 6.99214ZM10.8972 -0.000800852C11.6929 -0.00195237 12.4564 0.313014 13.0198 0.874808C13.5832 1.4366 13.9004 2.19921 13.9015 2.99485C13.9027 3.7905 13.5877 4.55402 13.0259 5.11744C12.4641 5.68087 11.7015 5.99804 10.9059 5.99919C10.1102 6.00034 9.34672 5.68538 8.7833 5.12358C8.21988 4.56179 7.9027 3.79919 7.90155 3.00354C7.9004 2.20789 8.21536 1.44437 8.77716 0.880948C9.33895 0.317525 10.1016 0.00035067 10.8972 -0.000800852ZM17.3986 0.989791C18.0617 0.988831 18.698 1.2513 19.1675 1.71946C19.637 2.18763 19.9013 2.82313 19.9023 3.48617C19.9032 4.14921 19.6408 4.78548 19.1726 5.25499C18.7044 5.72451 18.0689 5.98883 17.4059 5.98979C16.7428 5.99075 16.1066 5.72827 15.6371 5.26011C15.1675 4.79195 14.9032 4.15645 14.9023 3.49341C14.9013 2.83037 15.1638 2.1941 15.6319 1.72458C16.1001 1.25506 16.7356 0.99075 17.3986 0.989791ZM4.39866 1.00861C5.0617 1.00765 5.69797 1.27012 6.16749 1.73828C6.637 2.20644 6.90132 2.84194 6.90228 3.50498C6.90324 4.16802 6.64076 4.80429 6.1726 5.27381C5.70444 5.74333 5.06894 6.00764 4.4059 6.0086C3.74286 6.00956 3.10659 5.74709 2.63707 5.27893C2.16755 4.81076 1.90324 4.17526 1.90228 3.51222C1.90132 2.84918 2.16379 2.21292 2.63195 1.7434C3.10012 1.27388 3.73562 1.00956 4.39866 1.00861Z" fill="#8686A0"/>
</svg>
