<svg width="20" height="20" viewBox="0 0 20 20" fill="none" xmlns="http://www.w3.org/2000/svg">
    <path d="M19.1597 2.37794L15.7292 2.38291L15.727 0.898533C15.7263 0.404979 15.3728 0.00842022 14.9341 0.00905516L5.96188 0.0220404C5.52317 0.0226754 5.17079 0.420256 5.1715 0.91381L5.17365 2.39818L1.7431 2.40315C1.30439 2.40378 0.95201 2.80136 0.952724 3.29492L0.955732 5.37304C0.957649 6.69784 1.70181 8.05868 3.00298 9.107C4.04326 9.94787 5.3074 10.4804 6.63369 10.6492C7.67225 12.5811 8.88399 13.3772 8.88399 13.3772L8.88786 16.0491L7.30453 16.0514C6.14012 16.053 5.19453 16.8226 5.19643 18.1325L5.19707 18.5779C5.19742 18.8228 5.37584 19.0229 5.59355 19.0226L15.3574 19.0085C15.5751 19.0081 15.753 18.8075 15.7526 18.5626L15.752 18.1173C15.7501 16.8073 14.8023 16.0405 13.6379 16.0422L12.0545 16.0445L12.0507 13.3726C12.0507 13.3726 13.2601 12.573 14.2931 10.6381C15.6221 10.4655 16.8847 9.92929 17.9193 9.08541C19.2141 8.03334 19.9576 6.67035 19.9557 5.34554L19.9527 3.26742C19.952 2.77387 19.5985 2.37731 19.1597 2.37794ZM4.23387 7.17924C3.42806 6.52728 3.06746 5.80045 3.06684 5.36999L3.06598 4.77624L5.18369 4.77317C5.21842 5.98289 5.37829 7.04399 5.61054 7.97139C5.11217 7.77914 4.64668 7.51262 4.23387 7.17924ZM17.8446 5.3486C17.8455 5.94606 17.2627 6.68909 16.6828 7.16122C16.271 7.4958 15.803 7.76366 15.3051 7.95735C15.5347 7.02929 15.6915 5.96773 15.7227 4.75792L17.8437 4.75485L17.8446 5.3486Z" fill="#8686A0"/>
</svg>
