<svg width="21" height="21" viewBox="0 0 21 21" fill="none" xmlns="http://www.w3.org/2000/svg">
    <path d="M0.324219 0.987305L0.327113 2.9873L5.32711 2.98007L5.3329 6.98006L0.332902 6.9873L0.335797 8.9873L5.33579 8.98006C6.44579 8.97845 7.3345 8.08717 7.33289 6.97717L7.33145 5.97717L12.3314 5.96993L12.3459 15.9699L7.34592 15.9772L7.34447 14.9772C7.34287 13.8672 6.45158 12.9784 5.34158 12.9801L0.341586 12.9873L0.344481 14.9873L5.34448 14.9801L5.35026 18.98L0.35027 18.9873L0.353164 20.9873L5.35316 20.98C6.46316 20.9784 7.35187 20.0872 7.35026 18.9772L7.34881 17.9772L12.3488 17.9699C13.4588 17.9683 14.3475 17.077 14.3459 15.967L14.3401 11.967L20.3401 11.9583L20.3372 9.95835L14.3372 9.96703L14.3314 5.96704C14.3298 4.85704 13.4385 3.96833 12.3285 3.96993L7.32855 3.97717L7.32711 2.97717C7.3255 1.86717 6.43421 0.978462 5.32421 0.980068L0.324219 0.987305Z" fill="#8C69F4"/>
</svg>
