<svg width="31" height="31" viewBox="0 0 31 31" fill="none" xmlns="http://www.w3.org/2000/svg">
    <g clip-path="url(#clip0_86_1486)">
        <path d="M30.2977 5.6986C29.1951 6.18906 28.0105 6.52108 26.7648 6.67218C28.0492 5.90109 29.0093 4.68901 29.4657 3.26212C28.259 3.98129 26.9378 4.48818 25.5597 4.76077C24.6312 3.77233 23.4024 3.11806 22.0641 2.89955C20.7257 2.68104 19.3526 2.9105 18.158 3.55232C16.9634 4.19414 16.0141 5.2124 15.4575 6.44901C14.9009 7.68563 14.7681 9.07141 15.0798 10.3912C12.6323 10.2719 10.2372 9.63922 8.05005 8.53434C5.86285 7.42946 3.93242 5.87702 2.38403 3.97779C1.85685 4.89021 1.5545 5.94764 1.55613 7.07333C1.55701 8.08671 1.808 9.08421 2.28685 9.97732C2.7657 10.8704 3.45759 11.6315 4.30114 12.1931C3.32375 12.1634 2.36758 11.9007 1.51222 11.4269L1.51234 11.5061C1.5143 12.9275 2.00793 14.3043 2.90948 15.4031C3.81103 16.5019 5.06497 17.2549 6.45853 17.5344C5.55223 17.7811 4.60173 17.8186 3.6788 17.6441C4.07364 18.8665 4.84084 19.9348 5.873 20.6995C6.90517 21.4642 8.15062 21.887 9.435 21.9087C7.25722 23.6234 4.56596 24.5557 1.79415 24.5556C1.30315 24.5564 0.812532 24.5285 0.324812 24.4718C3.14097 26.2768 6.41752 27.2321 9.76243 27.2235C21.0854 27.2072 27.2618 17.8201 27.2501 9.68654C27.2497 9.4223 27.2427 9.15542 27.2304 8.89119C28.4332 8.01872 29.4709 6.93898 30.295 5.70257L30.2977 5.6986Z" fill="#8686A0"/>
    </g>
    <defs>
        <clipPath id="clip0_86_1486">
            <rect width="30" height="30" fill="white" transform="translate(0.289429 0.0431976) rotate(-0.0829226)"/>
        </clipPath>
    </defs>
</svg>
