<?xml version="1.0" standalone="no"?>
<!DOCTYPE svg PUBLIC "-//W3C//DTD SVG 20010904//EN"
 "http://www.w3.org/TR/2001/REC-SVG-20010904/DTD/svg10.dtd">
<svg version="1.0" xmlns="http://www.w3.org/2000/svg"
 width="30.000000pt" height="30.000000pt" viewBox="0 0 30.000000 30.000000"
 preserveAspectRatio="xMidYMid meet">

<path d="M1268 2973 c7 -3 16 -2 19 1 4 3 -2 6 -13 5 -11 0 -14 -3 -6 -6z"/>
<path d="M1436 2035 c-165 -58 -208 -257 -81 -374 74 -68 171 -79 260 -27 65
39 98 93 103 171 2 35 -1 79 -7 98 -18 54 -84 114 -144 132 -61 18 -80 18
-131 0z m152 -44 c45 -23 77 -56 92 -96 16 -42 14 -117 -4 -152 -20 -40 -80
-91 -114 -98 -15 -4 -35 -8 -44 -10 -10 -1 -37 1 -60 7 -181 40 -199 288 -27
357 41 16 117 12 157 -8z"/>
<path d="M1286 1480 c-69 -27 -122 -66 -159 -119 -47 -65 -58 -96 -66 -178
l-7 -73 449 0 450 0 -6 67 c-13 135 -102 255 -222 301 -50 20 -76 22 -223 22
-140 -1 -175 -4 -216 -20z m456 -48 c103 -51 168 -144 168 -242 l0 -50 -410 0
-410 0 0 48 c0 82 56 172 141 229 63 42 127 53 294 50 148 -2 152 -3 217 -35z"/>

</svg>
