<svg width="31" height="30" viewBox="0 0 31 30" fill="none" xmlns="http://www.w3.org/2000/svg">
    <path d="M21.5653 17.5122C21.6839 16.5221 21.7724 15.5319 21.771 14.5119C21.7695 13.4919 21.678 12.5021 21.5566 11.5122L26.6266 11.5049C26.868 12.4646 27.0194 13.4693 27.0209 14.5043C27.0224 15.5393 26.8739 16.5445 26.6353 17.5049L21.5653 17.5122ZM18.9224 25.8561C19.82 24.1898 20.5074 22.3888 20.9846 20.5131L25.4096 20.5067C23.96 23.0112 21.6572 24.9101 18.9224 25.8561ZM18.5353 17.5166L11.5153 17.5268C11.3639 16.537 11.2724 15.5471 11.271 14.5271C11.2695 13.5071 11.358 12.502 11.5066 11.5268L18.5266 11.5166C18.663 12.4914 18.7695 13.4963 18.771 14.5163C18.7724 15.5363 18.6689 16.5264 18.5353 17.5166ZM15.0382 26.4617C13.7906 24.6635 12.7828 22.6699 12.1646 20.5258L17.8946 20.5175C17.2827 22.6634 16.2806 24.6599 15.0382 26.4617ZM9.01228 8.53039L4.63229 8.53673C6.06694 6.02547 8.3681 4.12355 11.1046 3.18736C10.207 4.85366 9.53457 6.65463 9.01228 8.53039ZM4.64966 20.5367L9.02965 20.5304C9.55736 22.4046 10.235 24.2036 11.1374 25.8673C8.40395 24.9288 6.10054 23.0362 4.64966 20.5367ZM3.41532 17.5385C3.17393 16.5789 3.02247 15.5741 3.02097 14.5391C3.01948 13.5041 3.16802 12.4989 3.40663 11.5385L8.47663 11.5312C8.35806 12.5213 8.26949 13.5115 8.27097 14.5315C8.27244 15.5515 8.36388 16.5413 8.48531 17.5312L3.41532 17.5385ZM15.0037 2.56671C16.2513 4.36491 17.2592 6.37345 17.8773 8.51756L12.1473 8.52585C12.7592 6.37997 13.7613 4.36851 15.0037 2.56671ZM25.3923 8.50669L20.9673 8.51309C20.4951 6.65596 19.7973 4.86362 18.8895 3.17609C21.6509 4.1171 23.9487 6.01877 25.3923 8.50669ZM14.9993 -0.478283C6.70426 -0.466277 0.00903667 6.29342 0.0209767 14.5434C0.0267343 18.5217 1.61261 22.3347 4.42972 25.1436C5.82461 26.5345 7.4798 27.637 9.30077 28.3882C11.1217 29.1394 13.0728 29.5245 15.0427 29.5217C19.0209 29.5159 22.8339 27.9301 25.6429 25.1129C28.4519 22.2958 30.0267 18.4782 30.0209 14.5C30.0181 12.5302 29.6273 10.5802 28.8708 8.7614C28.1144 6.94261 27.0071 5.29062 25.6122 3.89976C24.2173 2.5089 22.5621 1.4064 20.7411 0.655216C18.9202 -0.0959703 16.9691 -0.481133 14.9993 -0.478283Z" fill="#8686A0"/>
</svg>
